<mxfile host="app.diagrams.net" modified="2022-09-05T02:03:53.494Z" agent="5.0 (Windows NT 10.0; Win64; x64) AppleWebKit/537.36 (KHTML, like Gecko) Chrome/104.0.0.0 Safari/537.36" etag="MnBF6gLyWF3coiW9XxKs" version="20.2.8" type="github">
  <diagram id="yDhocIVjmnCuPwCWFGr_" name="Page-1">
    <mxGraphModel dx="694" dy="344" grid="1" gridSize="10" guides="1" tooltips="1" connect="1" arrows="1" fold="1" page="1" pageScale="1" pageWidth="827" pageHeight="1169" math="0" shadow="0">
      <root>
        <mxCell id="0" />
        <mxCell id="1" parent="0" />
        <mxCell id="Zut7dhxNFDEUJoQM6n31-23" value="" style="rounded=0;whiteSpace=wrap;html=1;fillColor=none;strokeColor=#82b366;dashed=1;" parent="1" vertex="1">
          <mxGeometry x="150" y="60" width="290" height="200" as="geometry" />
        </mxCell>
        <mxCell id="Zut7dhxNFDEUJoQM6n31-3" style="edgeStyle=orthogonalEdgeStyle;rounded=0;orthogonalLoop=1;jettySize=auto;html=1;exitX=1;exitY=0.5;exitDx=0;exitDy=0;exitPerimeter=0;entryX=-0.02;entryY=0.507;entryDx=0;entryDy=0;entryPerimeter=0;" parent="1" source="Zut7dhxNFDEUJoQM6n31-1" target="Zut7dhxNFDEUJoQM6n31-2" edge="1">
          <mxGeometry relative="1" as="geometry" />
        </mxCell>
        <mxCell id="Zut7dhxNFDEUJoQM6n31-12" style="edgeStyle=orthogonalEdgeStyle;rounded=0;orthogonalLoop=1;jettySize=auto;html=1;exitX=0.5;exitY=1;exitDx=0;exitDy=0;exitPerimeter=0;" parent="1" source="Zut7dhxNFDEUJoQM6n31-1" edge="1">
          <mxGeometry relative="1" as="geometry">
            <mxPoint x="580" y="240" as="targetPoint" />
            <Array as="points">
              <mxPoint x="90" y="280" />
              <mxPoint x="580" y="280" />
            </Array>
          </mxGeometry>
        </mxCell>
        <mxCell id="Zut7dhxNFDEUJoQM6n31-19" value="跟踪视频流" style="edgeLabel;html=1;align=center;verticalAlign=middle;resizable=0;points=[];" parent="Zut7dhxNFDEUJoQM6n31-12" vertex="1" connectable="0">
          <mxGeometry x="0.265" y="-1" relative="1" as="geometry">
            <mxPoint as="offset" />
          </mxGeometry>
        </mxCell>
        <mxCell id="Zut7dhxNFDEUJoQM6n31-1" value="输入：实时视频流、图像" style="strokeWidth=2;html=1;shape=mxgraph.flowchart.start_1;whiteSpace=wrap;" parent="1" vertex="1">
          <mxGeometry x="40" y="159.97" width="100" height="60" as="geometry" />
        </mxCell>
        <mxCell id="Zut7dhxNFDEUJoQM6n31-5" style="edgeStyle=orthogonalEdgeStyle;rounded=0;orthogonalLoop=1;jettySize=auto;html=1;exitX=1;exitY=0.5;exitDx=0;exitDy=0;entryX=0;entryY=0.5;entryDx=0;entryDy=0;entryPerimeter=0;" parent="1" source="Zut7dhxNFDEUJoQM6n31-2" target="Zut7dhxNFDEUJoQM6n31-4" edge="1">
          <mxGeometry relative="1" as="geometry" />
        </mxCell>
        <mxCell id="Zut7dhxNFDEUJoQM6n31-2" value="基于注意力机制的目标检测算法" style="rounded=1;whiteSpace=wrap;html=1;absoluteArcSize=1;arcSize=14;strokeWidth=2;" parent="1" vertex="1">
          <mxGeometry x="180" y="139.97" width="100" height="100" as="geometry" />
        </mxCell>
        <mxCell id="Zut7dhxNFDEUJoQM6n31-6" style="edgeStyle=orthogonalEdgeStyle;rounded=0;orthogonalLoop=1;jettySize=auto;html=1;exitX=0.5;exitY=0;exitDx=0;exitDy=0;exitPerimeter=0;entryX=0.5;entryY=0;entryDx=0;entryDy=0;" parent="1" source="Zut7dhxNFDEUJoQM6n31-4" target="Zut7dhxNFDEUJoQM6n31-2" edge="1">
          <mxGeometry relative="1" as="geometry" />
        </mxCell>
        <mxCell id="Zut7dhxNFDEUJoQM6n31-7" value="否" style="edgeLabel;html=1;align=center;verticalAlign=middle;resizable=0;points=[];" parent="Zut7dhxNFDEUJoQM6n31-6" vertex="1" connectable="0">
          <mxGeometry x="-0.3484" y="1" relative="1" as="geometry">
            <mxPoint x="-45" as="offset" />
          </mxGeometry>
        </mxCell>
        <mxCell id="Zut7dhxNFDEUJoQM6n31-9" style="edgeStyle=orthogonalEdgeStyle;rounded=0;orthogonalLoop=1;jettySize=auto;html=1;exitX=1;exitY=0.5;exitDx=0;exitDy=0;exitPerimeter=0;entryX=0;entryY=0.5;entryDx=0;entryDy=0;" parent="1" source="Zut7dhxNFDEUJoQM6n31-4" target="Zut7dhxNFDEUJoQM6n31-8" edge="1">
          <mxGeometry relative="1" as="geometry" />
        </mxCell>
        <mxCell id="Zut7dhxNFDEUJoQM6n31-10" value="是" style="edgeLabel;html=1;align=center;verticalAlign=middle;resizable=0;points=[];" parent="Zut7dhxNFDEUJoQM6n31-9" vertex="1" connectable="0">
          <mxGeometry x="-0.3269" y="-1" relative="1" as="geometry">
            <mxPoint as="offset" />
          </mxGeometry>
        </mxCell>
        <mxCell id="Zut7dhxNFDEUJoQM6n31-4" value="存在无人机目标？" style="strokeWidth=2;html=1;shape=mxgraph.flowchart.decision;whiteSpace=wrap;" parent="1" vertex="1">
          <mxGeometry x="340" y="139.97" width="100" height="100" as="geometry" />
        </mxCell>
        <mxCell id="Zut7dhxNFDEUJoQM6n31-16" style="edgeStyle=orthogonalEdgeStyle;rounded=0;orthogonalLoop=1;jettySize=auto;html=1;exitX=1;exitY=0.5;exitDx=0;exitDy=0;entryX=0;entryY=0.5;entryDx=0;entryDy=0;entryPerimeter=0;" parent="1" source="Zut7dhxNFDEUJoQM6n31-8" target="Zut7dhxNFDEUJoQM6n31-15" edge="1">
          <mxGeometry relative="1" as="geometry" />
        </mxCell>
        <mxCell id="Zut7dhxNFDEUJoQM6n31-8" value="相关滤波实时跟踪计算、deepsort目标检测算法" style="rounded=1;whiteSpace=wrap;html=1;absoluteArcSize=1;arcSize=14;strokeWidth=2;" parent="1" vertex="1">
          <mxGeometry x="530" y="139.97" width="100" height="100" as="geometry" />
        </mxCell>
        <mxCell id="Zut7dhxNFDEUJoQM6n31-11" value="结束" style="strokeWidth=2;html=1;shape=mxgraph.flowchart.terminator;whiteSpace=wrap;" parent="1" vertex="1">
          <mxGeometry x="830" y="150" width="100" height="60" as="geometry" />
        </mxCell>
        <mxCell id="Zut7dhxNFDEUJoQM6n31-17" style="edgeStyle=orthogonalEdgeStyle;rounded=0;orthogonalLoop=1;jettySize=auto;html=1;exitX=0.5;exitY=0;exitDx=0;exitDy=0;exitPerimeter=0;entryX=0.5;entryY=0;entryDx=0;entryDy=0;" parent="1" source="Zut7dhxNFDEUJoQM6n31-15" target="Zut7dhxNFDEUJoQM6n31-2" edge="1">
          <mxGeometry relative="1" as="geometry" />
        </mxCell>
        <mxCell id="Zut7dhxNFDEUJoQM6n31-18" value="N:跟踪失败" style="edgeLabel;html=1;align=center;verticalAlign=middle;resizable=0;points=[];" parent="Zut7dhxNFDEUJoQM6n31-17" vertex="1" connectable="0">
          <mxGeometry x="-0.4173" relative="1" as="geometry">
            <mxPoint x="-96" as="offset" />
          </mxGeometry>
        </mxCell>
        <mxCell id="Zut7dhxNFDEUJoQM6n31-20" style="edgeStyle=orthogonalEdgeStyle;rounded=0;orthogonalLoop=1;jettySize=auto;html=1;exitX=0.5;exitY=1;exitDx=0;exitDy=0;exitPerimeter=0;" parent="1" source="Zut7dhxNFDEUJoQM6n31-15" edge="1">
          <mxGeometry relative="1" as="geometry">
            <mxPoint x="580" y="239.8571428571429" as="targetPoint" />
            <Array as="points">
              <mxPoint x="720" y="260" />
              <mxPoint x="580" y="260" />
            </Array>
          </mxGeometry>
        </mxCell>
        <mxCell id="Zut7dhxNFDEUJoQM6n31-21" value="Y:跟踪成功" style="edgeLabel;html=1;align=center;verticalAlign=middle;resizable=0;points=[];" parent="Zut7dhxNFDEUJoQM6n31-20" vertex="1" connectable="0">
          <mxGeometry x="0.1265" relative="1" as="geometry">
            <mxPoint as="offset" />
          </mxGeometry>
        </mxCell>
        <mxCell id="Zut7dhxNFDEUJoQM6n31-22" style="edgeStyle=orthogonalEdgeStyle;rounded=0;orthogonalLoop=1;jettySize=auto;html=1;exitX=1;exitY=0.5;exitDx=0;exitDy=0;exitPerimeter=0;entryX=0.021;entryY=0.666;entryDx=0;entryDy=0;entryPerimeter=0;" parent="1" source="Zut7dhxNFDEUJoQM6n31-15" target="Zut7dhxNFDEUJoQM6n31-11" edge="1">
          <mxGeometry relative="1" as="geometry" />
        </mxCell>
        <mxCell id="Zut7dhxNFDEUJoQM6n31-15" value="跟踪目标丢失？" style="strokeWidth=2;html=1;shape=mxgraph.flowchart.decision;whiteSpace=wrap;" parent="1" vertex="1">
          <mxGeometry x="670" y="139.97" width="100" height="100" as="geometry" />
        </mxCell>
        <mxCell id="Zut7dhxNFDEUJoQM6n31-24" value="&lt;font color=&quot;#00cc66&quot;&gt;第一阶段：无人机目标检测&lt;/font&gt;" style="text;html=1;strokeColor=none;fillColor=none;align=center;verticalAlign=middle;whiteSpace=wrap;rounded=0;dashed=1;" parent="1" vertex="1">
          <mxGeometry x="185" y="70" width="155" height="30" as="geometry" />
        </mxCell>
        <mxCell id="Zut7dhxNFDEUJoQM6n31-27" value="" style="rounded=0;whiteSpace=wrap;html=1;fillColor=none;strokeColor=#FF3333;dashed=1;" parent="1" vertex="1">
          <mxGeometry x="470" y="60" width="290" height="200" as="geometry" />
        </mxCell>
        <mxCell id="Zut7dhxNFDEUJoQM6n31-28" value="&lt;font color=&quot;#ff3333&quot;&gt;第一阶段：无人机目标跟踪&lt;/font&gt;" style="text;html=1;strokeColor=none;fillColor=none;align=center;verticalAlign=middle;whiteSpace=wrap;rounded=0;dashed=1;" parent="1" vertex="1">
          <mxGeometry x="547.5" y="70" width="155" height="20" as="geometry" />
        </mxCell>
      </root>
    </mxGraphModel>
  </diagram>
</mxfile>
